<svg xmlns="http://www.w3.org/2000/svg" viewBox="0 0 200 64.38"><defs><style>.cls-1{fill:#fff;}</style></defs><g id="Layer_2" data-name="Layer 2"><g id="Layer_1-2" data-name="Layer 1"><polygon class="cls-1" points="2 46.58 2 17.8 100 2.03 198 17.8 198 46.58 100 62.35 2 46.58"/><path d="M100,4.05,196,19.5V44.87L100,60.32,4,44.87V19.5L100,4.05m0-4L0,16.09V48.28l100,16.1,100-16.1V16.09L100,0Z"/><path d="M18.19,43.4H15.57V21.08h2.62Zm15.53,0h-2.6V32.85H27.64V43.4H19.38V21.08h8.26v9.41h3.48V21.08h2.6Zm9.47,0H34.92V21.08h8.27Z"/><path d="M57.55,26.66a6,6,0,0,1-.77,2.73l-7.4,14H46.49q2.22-4.15,4.48-8.31,3.95-7.47,4-8.41a3,3,0,0,0-1-2.25,3.52,3.52,0,0,0-2.48-.94,3.38,3.38,0,0,0-2.9,1.39l-2.14-1.37a6,6,0,0,1,5-2.38,6.28,6.28,0,0,1,4.33,1.62A5.07,5.07,0,0,1,57.55,26.66ZM63,43.44H56.11l0,0H50.68l7.16-13.57a6.83,6.83,0,0,0,.88-3.17,6.09,6.09,0,0,0-.9-3.19,6.59,6.59,0,0,0-2.52-2.39h6.9a10.28,10.28,0,0,1,1.64,5.58,10.8,10.8,0,0,1-1.38,5.16q-1.26,2.32-4.88,9.27H63Z"/><path d="M86.23,22.61,84.37,24.3a6.51,6.51,0,0,0-8.63,0,5.15,5.15,0,0,0,0,7.81L81,36.83a4.53,4.53,0,0,1,1.75,3.32A3.55,3.55,0,0,1,81.38,43a4.69,4.69,0,0,1-3.17,1.12,6.93,6.93,0,0,1-4.65-1.77,8.7,8.7,0,0,1-2.65-4l2.53-.66a6.63,6.63,0,0,0,1.7,2.73,4.36,4.36,0,0,0,3,1.3,2.07,2.07,0,0,0,1.34-.43,1.37,1.37,0,0,0,.55-1.15,2.29,2.29,0,0,0-.95-1.59l-5.23-4.75a7.32,7.32,0,0,1-2.55-5.6,7.24,7.24,0,0,1,2.56-5.58,9.35,9.35,0,0,1,12.33,0ZM90.1,36a6.93,6.93,0,0,1-2.32,5.2,9.68,9.68,0,0,1-5.64,2.61,4.62,4.62,0,0,0,1.73-3.58,5.47,5.47,0,0,0-2.05-4.1l-5.26-4.76a4.18,4.18,0,0,1,0-6.25,5,5,0,0,1,3.37-1.35l8.29,7.55a6.65,6.65,0,0,1,.91,1A6.11,6.11,0,0,1,90.1,36ZM81,36.83l0,0,.08.08Z"/><path d="M99.66,43.4H97V23.46H91.79V21.1H97v0h2.62Zm14.49-19.94h-5V43.4h-8.25V21.08h8.25v0h5Z"/><path d="M139.21,32.08a11.81,11.81,0,0,1-11.94,11.77,11.54,11.54,0,0,1-8.6-3.63,11.48,11.48,0,0,1,0-16.28,11.89,11.89,0,0,1,20.51,8.14Zm-2.6,0a9.21,9.21,0,0,0-2.6-6.5,9.22,9.22,0,0,0-13.48,0,9.32,9.32,0,0,0,0,12.94,9.21,9.21,0,0,0,13.48,0A9.2,9.2,0,0,0,136.61,32.08Zm-9.07,8.33-.27,0a7,7,0,0,1-5.87-2.56,8.49,8.49,0,0,1,0-11.58,7.08,7.08,0,0,1,5.87-2.57l.27,0Z"/><path d="M143.9,43.4h-2.65V21.08h2.65Zm20.24-13.94a7.67,7.67,0,0,1-1.86,5,9,9,0,0,1-4.84,3L164,43.4h-3.7l-6.2-5.58h-.75V43.4h-8.25V21.08h8.25v0h1.59a9.4,9.4,0,0,1,6.52,2.45A7.7,7.7,0,0,1,164.14,29.46Zm-2.62,0a5.49,5.49,0,0,0-1.94-4.22,6.74,6.74,0,0,0-4.67-1.75h-1.59v12h1.59a6.71,6.71,0,0,0,4.67-1.76A5.51,5.51,0,0,0,161.52,29.46Z"/><path d="M168.9,43.4h-2.62V21.08h2.62Zm15.53,0h-6.5v0h-7.87V21.08h8.29v0h6.08v2.36h-6.08v7h6.08v2.36h-6.08v8.24h6.08Z"/></g></g></svg>